<svg xmlns="http://www.w3.org/2000/svg"><symbol id="mecha-stilts" viewBox="0 0 256 256"><path d="M80 157.8h13.5v13.24H80zm17.7 0h21.1v13.24H97.7zm25.3 0h13.5v13.24H123zm17.7 0h21v13.24h-21zm35.3-45.6H83.4c1-27.1 21.7-42 46.3-42s45.3 14.9 46.3 42zm-10.1 45.6h13.5v13.24h-13.5zm-98.5-41.4v37.2H192v-37.2zM180 143.5h-51.3a2.1 2.1 0 1 1 0-4.2H180a2.1 2.1 0 1 1 0 4.2z"/><path d="M129.7 0l-111 64v128l111 64 111-64V64zm66.5 155.7a2 2 0 0 1-2.1 2.1h-10.5V171h10.5a2.1 2.1 0 1 1 0 4.2H65.3a2.1 2.1 0 1 1 0-4.2h10.5v-13.2H65.3a2 2 0 0 1-2.1-2.1v-41.4a2 2 0 0 1 2.1-2.1h13.9c1-29.8 23.4-46.3 50.5-46.3s49.5 16.4 50.5 46.3h13.9a2 2 0 0 1 2.1 2.1z"/></symbol><symbol id="space-bubbles" viewBox="0 0 256 256"><path d="M103.4 157.2l-35.6 18.7-3-4.2 18.6-21.8h13.9l6.1 7.3zm2.9 3.4l8.7 10.5H86.3l20-10.5zm47-10.7l-17.7 21.2h-15.2l-17.7-21.2h50.6zm-3.6 10.7l20 10.5h-28.6l8.6-10.5zm-63.6-30.1c-2.1-4.8-2.5-10.5-2.5-16 0-25 20.6-45.4 45.7-45.4a45.5 45.5 0 0 1 45.5 45.4 50.6 50.6 0 0 1-2.5 16zm-14.5 4.2h115.1v10.93H71.6zm101 15.2l18.6 22-3 4-35.8-18.7 6.3-7.3h13.9z"/><path d="M128 0L17 64v128l111 64 111-64V64zm67.4 173l-4.8 6.9a2.2 2.2 0 0 1-2.7.6l-10.1-5.2H78.1L68 180.5a2.3 2.3 0 0 1-2.7-.6l-4.9-6.9a2.2 2.2 0 0 1 .2-2.5l17.5-20.6h-8.6a2 2 0 0 1-2.1-2.1v-15.2a2 2 0 0 1 2.1-2.1h12.2a58.4 58.4 0 0 1-2.3-16 49.9 49.9 0 0 1 49.9-49.6c27.1 0 49.7 22.5 49.7 49.6a51.4 51.4 0 0 1-2.3 16h12.2a2 2 0 0 1 2.1 2.1v15.1a2 2 0 0 1-2.1 2.1h-10.8l17.3 20.6a2.2 2.2 0 0 1 0 2.6z"/></symbol><symbol id="super-domes" viewBox="0 0 256 256"><path d="M90.3 127.8H67.8c6.5-25.4 29.1-45 56-46.7zm5.3 0l30.3-42.5v42.5H95.6zm-26.3 20h56.6v23.33H69.3zm60.8 0h9.5v23.33h-9.5zm13.7 0h42.9v23.33h-42.9zm44.4-20h-58.1V80.9a62.5 62.5 0 0 1 58.1 46.9zM57.3 132h141.5v11.56H57.3z"/><path d="M128 0L17 64v128l111 64 111-64V64zm90.7 147.8h-27.8v25.4a2 2 0 0 1-2.1 2.1H67.2a2 2 0 0 1-2.1-2.1v-25.4H37.3a2.1 2.1 0 0 1 0-4.2h15.8v-13.7a2 2 0 0 1 2.1-2.1h8.2a66.7 66.7 0 0 1 64.4-51.1c.2-.2.4-.2.8 0 31.2.2 57 22.1 64 51.1h8.2a2 2 0 0 1 2.1 2.1v13.7h15.8a2.1 2.1 0 1 1 0 4.2z"/></symbol></svg>